/* XPM */
static char * hide_pressed_xpm[] = {
"7 17 5 1",
" 	c None",
".	c #343434",
"+	c #282828",
"@	c #414141",
"#	c #CCCCCC",
".......",
"+++++++",
"+++++++",
"+++++++",
"+++++++",
"+++++++",
"+++++++",
"+++++++",
"+++++++",
"@@@@@@@",
"@#####@",
"@@@@@@@",
"+++++++",
"+++++++",
"+++++++",
"+++++++",
"......."};
