/* XPM */
static char * maximize_pressed_xpm[] = {
"7 17 4 1",
" 	c #343434",
".	c #282828",
"+	c #414141",
"@	c #CCCCCC",
"       ",
".......",
".......",
".......",
".......",
"+++++++",
"+@@@@@+",
"+@@@@@+",
"+@+++@+",
"+@+++@+",
"+@@@@@+",
"+++++++",
".......",
".......",
".......",
".......",
"       "};
