/* XPM */
static char * maximize_inactive_xpm[] = {
"7 17 4 1",
" 	c None",
".	c #343434",
"+	c #282828",
"@	c #5F5F5F",
".......",
"+++++++",
"+++++++",
"+++++++",
"+++++++",
".......",
".@@@@@.",
".@@@@@.",
".@...@.",
".@...@.",
".@@@@@.",
".......",
"+++++++",
"+++++++",
"+++++++",
"+++++++",
"......."};
