/* XPM */
static char * title_3_active_xpm[] = {
"1 17 2 1",
" 	c #343434",
".	c #282828",
" ",
".",
".",
".",
".",
".",
".",
".",
".",
".",
".",
".",
".",
".",
".",
".",
" "};
