/* XPM */
static char * top_left_inactive_xpm[] = {
"4 17 2 1",
" 	c #343434",
".	c #282828",
"    ",
" ...",
" ...",
" ...",
" ...",
" ...",
" ...",
" ...",
" ...",
" ...",
" ...",
" ...",
" ...",
" ...",
" ...",
" ...",
" .. "};
